<?xml version="1.0" encoding="iso-8859-1"?>
<!-- Generator: Adobe Illustrator 19.0.0, SVG Export Plug-In . SVG Version: 6.00 Build 0)  -->
<svg version="1.1" id="Capa_1" xmlns="http://www.w3.org/2000/svg" xmlns:xlink="http://www.w3.org/1999/xlink" x="0px" y="0px"
	 viewBox="0 0 512 512" style="enable-background:new 0 0 512 512;" xml:space="preserve">
<path style="fill:#E3F2FF;" d="M501.75,30v452c0,11.05-8.95,20-20,20h-452c-11.05,0-20-8.95-20-20V30c0-11.05,8.95-20,20-20h452
	C492.8,10,501.75,18.95,501.75,30z"/>
<path style="fill:#ADE6FF;" d="M75.75,70c0,12.202,0,284.364,0,292h360c0-7.617,0-279.817,0-292H75.75z"/>
<g>
	<path style="fill:#FD6244;" d="M415.75,402c11.03,0,20,8.97,20,20s-8.97,20-20,20s-20-8.97-20-20S404.72,402,415.75,402z"/>
	<path style="fill:#FD6244;" d="M315.75,402c11.03,0,20,8.97,20,20s-8.97,20-20,20s-20-8.97-20-20S304.72,402,315.75,402z"/>
</g>
<path d="M236,412c-5.52,0-10,4.48-10,10s4.48,10,10,10s10-4.48,10-10S241.52,412,236,412z"/>
<path d="M482,0H30C13.458,0,0,13.458,0,30v452c0,16.542,13.458,30,30,30h452c16.542,0,30-13.458,30-30V30
	C512,13.458,498.542,0,482,0z M492,482c0,5.514-4.486,10-10,10H30c-5.514,0-10-4.486-10-10V30c0-5.514,4.486-10,10-10h452
	c5.514,0,10,4.486,10,10V482z"/>
<path d="M436,60H76c-5.523,0-10,4.477-10,10v292c0,5.523,4.477,10,10,10h360c5.523,0,10-4.477,10-10V70
	C446,64.477,441.523,60,436,60z M426,80v146h-83.82l-17.236-34.472c-1.761-3.522-5.415-5.681-9.36-5.519
	c-3.935,0.164-7.407,2.621-8.869,6.277L278.2,263.572l-32.499-129.998c-1.079-4.313-4.875-7.396-9.318-7.567
	c-4.441-0.167-8.464,2.613-9.871,6.831L196,224.377l-10.513-31.539c-1.279-3.837-4.744-6.526-8.778-6.813
	c-4.039-0.285-7.844,1.886-9.653,5.503L149.82,226H86V80H426z M86,352V246h70c3.788,0,7.25-2.14,8.944-5.528l9.203-18.407
	l12.366,37.097c1.361,4.083,5.183,6.838,9.487,6.838s8.125-2.754,9.487-6.838l29.141-87.421l31.671,126.685
	c1.052,4.208,4.697,7.258,9.024,7.552c0.228,0.016,0.455,0.023,0.681,0.023c4.064,0,7.755-2.471,9.281-6.286l31.73-79.324
	l10.041,20.083C328.75,243.86,332.212,246,336,246h90v106H86z"/>
<path d="M116,412H76c-5.523,0-10,4.477-10,10s4.477,10,10,10h40c5.523,0,10-4.477,10-10S121.523,412,116,412z"/>
<path d="M196,412h-40c-5.523,0-10,4.477-10,10s4.477,10,10,10h40c5.523,0,10-4.477,10-10S201.523,412,196,412z"/>
<path d="M416,392c-16.542,0-30,13.458-30,30s13.458,30,30,30s30-13.458,30-30S432.542,392,416,392z M416,432
	c-5.514,0-10-4.486-10-10s4.486-10,10-10s10,4.486,10,10S421.514,432,416,432z"/>
<path d="M316,392c-16.542,0-30,13.458-30,30s13.458,30,30,30s30-13.458,30-30S332.542,392,316,392z M316,432
	c-5.514,0-10-4.486-10-10s4.486-10,10-10s10,4.486,10,10S321.514,432,316,432z"/>
<g>
</g>
<g>
</g>
<g>
</g>
<g>
</g>
<g>
</g>
<g>
</g>
<g>
</g>
<g>
</g>
<g>
</g>
<g>
</g>
<g>
</g>
<g>
</g>
<g>
</g>
<g>
</g>
<g>
</g>
</svg>
