<?xml version="1.0" encoding="iso-8859-1"?>
<!-- Generator: Adobe Illustrator 19.0.0, SVG Export Plug-In . SVG Version: 6.00 Build 0)  -->
<svg version="1.1" id="Capa_1" xmlns="http://www.w3.org/2000/svg" xmlns:xlink="http://www.w3.org/1999/xlink" x="0px" y="0px"
	 viewBox="0 0 512 512" style="enable-background:new 0 0 512 512;" xml:space="preserve">
<path style="fill:#E3F2FF;" d="M375.75,196v-66c0-11.05-8.95-20-20-20h-200c-11.05,0-20,8.95-20,20v66h-106v306h452V196H375.75z"/>
<path style="fill:#4DBBEB;" d="M295.75,376h-80c-11.05,0-20,8.95-20,20v106h120V396C315.75,384.95,306.8,376,295.75,376z"/>
<path style="fill:#ED5151;" d="M315.75,70c0,15.37-5.78,29.38-15.27,40h-0.01c-10.98,12.27-26.95,20-44.72,20s-33.74-7.73-44.72-20
	h-0.01c-9.49-10.62-15.27-24.63-15.27-40c0-33.14,26.86-60,60-60S315.75,36.86,315.75,70z"/>
<path d="M256,426c5.52,0,10-4.48,10-10s-4.48-10-10-10s-10,4.48-10,10S250.48,426,256,426z"/>
<path d="M502,206c5.523,0,10-4.478,10-10s-4.477-10-10-10c-27.214,0-92.499,0-116,0v-56c0-16.542-13.458-30-30-30h-36.762
	C323.65,90.7,326,80.476,326,70c0-38.598-31.402-70-70-70s-70,31.402-70,70c0,10.476,2.35,20.7,6.762,30H156
	c-16.542,0-30,13.458-30,30v56c-23.572,0-89,0-116,0c-5.523,0-10,4.478-10,10s4.477,10,10,10h10v120H10c-5.523,0-10,4.478-10,10
	s4.477,10,10,10h10v156c0,5.522,4.477,10,10,10c166.883,0,283.285,0,452,0c5.523,0,10-4.478,10-10V346h10c5.523,0,10-4.478,10-10
	s-4.477-10-10-10h-10V206H502z M256,20c27.57,0,50,22.43,50,50c0,12.199-4.437,23.934-12.499,33.08
	c-0.079,0.083-0.156,0.166-0.232,0.251C283.789,113.925,270.205,120,256,120s-27.789-6.075-37.269-16.669
	c-0.076-0.085-0.153-0.168-0.232-0.251C210.437,93.934,206,82.199,206,70C206,42.43,228.43,20,256,20z M146,130
	c0-5.514,4.486-10,10-10h51.03c13.034,12.757,30.628,20,48.97,20s35.936-7.243,48.97-20H356c5.514,0,10,4.486,10,10v66v296h-40v-96
	c0-16.542-13.458-30-30-30h-80c-16.542,0-30,13.458-30,30v96h-40V196V130z M40,206h86v120H40V206z M40,346h86v146H40V346z M206,396
	c0-5.514,4.486-10,10-10h80c5.514,0,10,4.486,10,10v96h-40v-36c0-5.522-4.477-10-10-10s-10,4.478-10,10v36h-40V396z M472,492h-86
	V346h86V492z M386,326V206h86v120H386z"/>
<path d="M416,246h26c5.523,0,10-4.478,10-10s-4.477-10-10-10h-26c-5.523,0-10,4.478-10,10S410.477,246,416,246z"/>
<path d="M442,286h-26c-5.523,0-10,4.478-10,10s4.477,10,10,10h26c5.523,0,10-4.478,10-10S447.523,286,442,286z"/>
<path d="M416,386h26c5.523,0,10-4.478,10-10s-4.477-10-10-10h-26c-5.523,0-10,4.478-10,10S410.477,386,416,386z"/>
<path d="M442,426h-26c-5.523,0-10,4.478-10,10s4.477,10,10,10h26c5.523,0,10-4.478,10-10S447.523,426,442,426z"/>
<path d="M96,426H70c-5.523,0-10,4.478-10,10s4.477,10,10,10h26c5.523,0,10-4.478,10-10S101.523,426,96,426z"/>
<path d="M96,366H70c-5.523,0-10,4.478-10,10s4.477,10,10,10h26c5.523,0,10-4.478,10-10S101.523,366,96,366z"/>
<path d="M96,286H70c-5.523,0-10,4.478-10,10s4.477,10,10,10h26c5.523,0,10-4.478,10-10S101.523,286,96,286z"/>
<path d="M70,246h26c5.523,0,10-4.478,10-10s-4.477-10-10-10H70c-5.523,0-10,4.478-10,10S64.477,246,70,246z"/>
<path d="M176,206h20c5.523,0,10-4.478,10-10s-4.477-10-10-10h-20c-5.523,0-10,4.478-10,10S170.477,206,176,206z"/>
<path d="M236,206h40c5.523,0,10-4.478,10-10s-4.477-10-10-10h-40c-5.523,0-10,4.478-10,10S230.477,206,236,206z"/>
<path d="M316,206h20c5.523,0,10-4.478,10-10s-4.477-10-10-10h-20c-5.523,0-10,4.478-10,10S310.477,206,316,206z"/>
<path d="M176,266h20c5.523,0,10-4.478,10-10s-4.477-10-10-10h-20c-5.523,0-10,4.478-10,10S170.477,266,176,266z"/>
<path d="M236,266h40c5.523,0,10-4.478,10-10s-4.477-10-10-10h-40c-5.523,0-10,4.478-10,10S230.477,266,236,266z"/>
<path d="M316,266h20c5.523,0,10-4.478,10-10s-4.477-10-10-10h-20c-5.523,0-10,4.478-10,10S310.477,266,316,266z"/>
<path d="M176,326h20c5.523,0,10-4.478,10-10s-4.477-10-10-10h-20c-5.523,0-10,4.478-10,10S170.477,326,176,326z"/>
<path d="M236,326h40c5.523,0,10-4.478,10-10s-4.477-10-10-10h-40c-5.523,0-10,4.478-10,10S230.477,326,236,326z"/>
<path d="M316,326h20c5.523,0,10-4.478,10-10s-4.477-10-10-10h-20c-5.523,0-10,4.478-10,10S310.477,326,316,326z"/>
<path d="M236,80h10v10c0,5.522,4.477,10,10,10c5.523,0,10-4.478,10-10V80h10c5.523,0,10-4.478,10-10s-4.477-10-10-10h-10V50
	c0-5.522-4.477-10-10-10s-10,4.478-10,10v10h-10c-5.523,0-10,4.478-10,10S230.477,80,236,80z"/>
<g>
</g>
<g>
</g>
<g>
</g>
<g>
</g>
<g>
</g>
<g>
</g>
<g>
</g>
<g>
</g>
<g>
</g>
<g>
</g>
<g>
</g>
<g>
</g>
<g>
</g>
<g>
</g>
<g>
</g>
</svg>
