<?xml version="1.0" encoding="iso-8859-1"?>
<!-- Generator: Adobe Illustrator 19.0.0, SVG Export Plug-In . SVG Version: 6.00 Build 0)  -->
<svg version="1.1" id="Capa_1" xmlns="http://www.w3.org/2000/svg" xmlns:xlink="http://www.w3.org/1999/xlink" x="0px" y="0px"
	 viewBox="0 0 512.001 512.001" style="enable-background:new 0 0 512.001 512.001;" xml:space="preserve">
<path style="fill:#57555C;" d="M490.023,490.269c-16.445,16.456-43.217,15.235-57.965-1.48L313.109,358.38l44.996-44.996
	l130.439,118.92C505.199,447.001,506.513,473.79,490.023,490.269z"/>
<polygon style="fill:#FEC459;" points="313.249,271.958 313.239,271.948 271.183,313.844 271.193,313.854 313.109,358.38 
	358.105,313.384 "/>
<path style="fill:#E3F2FF;" d="M299.98,59.827c66.422,66.422,66.64,174.339,0.29,240.689
	c-66.056,66.056-173.983,66.416-240.689-0.29c-66.384-66.384-66.384-174.015,0-240.399S233.596-6.557,299.98,59.827z"/>
<path style="fill:#ADE6FF;" d="M272.433,87.406c51.192,51.192,51.358,134.361,0.224,185.496
	c-50.909,50.909-134.086,51.187-185.496-0.224C36,221.517,36,138.567,87.162,87.405S221.272,36.245,272.433,87.406z"/>
<path d="M251.024,81.035c5.52,0,9.999-4.48,9.999-9.999c0-5.52-4.48-9.999-9.999-9.999c-5.52,0-9.999,4.48-9.999,9.999
	C241.025,76.555,245.505,81.035,251.024,81.035z"/>
<path d="M221.54,187.863L211.028,219.4l-10.512-31.536c-1.361-4.084-5.183-6.837-9.486-6.837h-12.191l-18.104-72.42
	c-1.112-4.451-5.112-7.573-9.7-7.573c-4.589,0-8.588,3.123-9.7,7.573l-18.104,72.42H91.038c-5.522,0-9.999,4.478-9.999,9.999
	s4.478,9.999,9.999,9.999h39.996c4.589,0,8.588-3.123,9.7-7.573l10.298-41.19l10.298,41.19c1.112,4.451,5.112,7.573,9.7,7.573
	h12.791l17.719,53.157c1.361,4.084,5.183,6.837,9.486,6.837s8.125-2.754,9.486-6.837l17.719-53.157h32.789
	c5.522,0,9.999-4.478,9.999-9.999s-4.478-9.999-9.999-9.999h-39.996C226.721,181.026,222.901,183.78,221.54,187.863z"/>
<path d="M307.3,52.756c-70.34-70.338-184.192-70.346-254.54,0c-70.338,70.34-70.346,184.192,0,254.541
	c59.953,59.951,153.002,69.583,223.369,25.387c0.149,0.163,150.437,164.578,150.557,164.696
	c19.529,19.496,51.127,19.507,70.654-0.037c20.763-20.746,18.855-54.085-1.865-72.476
	C482.54,413.05,351.123,293.259,332.559,276.336C376.93,205.907,367.283,112.741,307.3,52.756z M293.453,321.723l-0.781-0.781
	c5.192-4.153,10.183-8.62,14.92-13.356c4.705-4.704,9.147-9.672,13.287-14.841l23.003,20.972l-30.188,30.188l-19.921-21.849
	C293.668,321.943,293.561,321.833,293.453,321.723z M483.199,483.202c-12.368,12.376-32.481,11.402-43.503-1.15L327.183,358.698
	l31.493-31.492l123.382,112.487C495.499,452.127,494.771,471.64,483.199,483.202z M293.45,293.445
	c-62.549,62.557-163.775,62.483-226.547-0.29c-62.522-62.52-62.533-163.728,0-226.257c62.52-62.522,163.728-62.533,226.257,0
	C356.07,129.808,355.954,230.941,293.45,293.445z"/>
<path d="M274.398,90.053c-4.265,3.51-4.876,9.811-1.367,14.075c39.424,47.902,36.041,117.13-7.87,161.031
	c-46.805,46.815-122.869,46.821-169.682-0.002c-46.816-46.806-46.82-122.87,0.001-169.681
	c30.275-30.274,74.852-42.121,116.342-30.914c5.33,1.438,10.821-1.715,12.261-7.046c1.439-5.331-1.715-10.82-7.046-12.261
	C168.658,32.185,116.66,46.011,81.339,81.333c-54.632,54.622-54.638,143.339-0.002,197.965
	c54.622,54.633,143.339,54.638,197.965,0.002c51.258-51.249,54.477-132.831,9.171-187.879
	C284.964,87.157,278.663,86.543,274.398,90.053z"/>
<g>
</g>
<g>
</g>
<g>
</g>
<g>
</g>
<g>
</g>
<g>
</g>
<g>
</g>
<g>
</g>
<g>
</g>
<g>
</g>
<g>
</g>
<g>
</g>
<g>
</g>
<g>
</g>
<g>
</g>
</svg>
