<?xml version="1.0" encoding="iso-8859-1"?>
<!-- Generator: Adobe Illustrator 19.0.0, SVG Export Plug-In . SVG Version: 6.00 Build 0)  -->
<svg version="1.1" id="Capa_1" xmlns="http://www.w3.org/2000/svg" xmlns:xlink="http://www.w3.org/1999/xlink" x="0px" y="0px"
	 viewBox="0 0 512 512" style="enable-background:new 0 0 512 512;" xml:space="preserve">
<g>
	<path style="fill:#4398D1;" d="M358.4,8.533c-23.561,0-42.667,19.106-42.667,42.667s-19.106,42.667-42.667,42.667v42.667h102.4
		c23.561,0,42.667-19.106,42.667-42.667c23.561,0,42.667-19.106,42.667-42.667c23.561,0,42.667-19.106,42.667-42.667H358.4z"/>
	<path style="fill:#4398D1;" d="M196.267,51.2c0-23.561-19.106-42.667-42.667-42.667H8.533C8.533,32.094,27.639,51.2,51.2,51.2
		c0,23.561,19.106,42.667,42.667,42.667c0,23.561,19.106,42.667,42.667,42.667h102.4V93.867
		C215.373,93.867,196.267,74.761,196.267,51.2z"/>
</g>
<path style="fill:#EBEBEB;" d="M256,8.533c-14.14-0.017-25.617,11.426-25.634,25.566c-0.017,7.313,3.106,14.285,8.567,19.149
	v441.685h34.133V53.248c10.556-9.404,11.494-25.583,2.082-36.147C270.285,11.639,263.313,8.525,256,8.533z"/>
<g>
	<rect x="238.933" y="324.267" style="fill:#E0E0E0;" width="34.133" height="25.6"/>
	<rect x="238.933" y="418.133" style="fill:#E0E0E0;" width="34.133" height="25.6"/>
</g>
<path style="fill:#87CED9;" d="M256,503.467c-0.768,0.085-1.536,0.085-2.304,0l0,0c-35.345,0-64-28.655-64-64l0,0l0,0
	c0-35.345,28.655-64,64-64l0,0h44.971c14.14,0,25.6-11.46,25.6-25.6l0,0c0-14.14-11.46-25.6-25.6-25.6h-85.333V281.6h85.333
	c37.7,0,68.267,30.566,68.267,68.267l0,0c0,37.7-30.566,68.267-68.267,68.267h-37.205c-16.026-0.051-29.047,12.902-29.099,28.928
	c0,0.06,0,0.111,0,0.171l0,0l0,0c0.043,6.733,2.355,13.261,6.571,18.517l11.435,13.995"/>
<path style="fill:#6EC1D4;" d="M322.731,341.333h43.605c-4.301-34.108-33.289-59.699-67.669-59.733v42.667
	C309.487,324.301,319.121,331.128,322.731,341.333z"/>
<path style="fill:#87CED9;" d="M152.747,323.669c-38.485-4.736-67.405-37.427-67.413-76.203l0,0c0-42.419,34.381-76.8,76.8-76.8
	H179.2l25.6,25.6v17.067h-42.667c-18.85,0-34.133,15.283-34.133,34.133l0,0c0,18.85,15.283,34.133,34.133,34.133h136.533"/>
<g>
	<path style="fill:#4398D1;" d="M349.867,170.667H332.8l-25.6,25.6v17.067h42.667c18.85,0,34.133,15.283,34.133,34.133
		c0,18.85-15.283,34.133-34.133,34.133H213.333c-37.7,0.094-68.19,30.737-68.096,68.437c0.077,30.276,20.087,56.892,49.152,65.365
		c9.89-24.26,33.536-40.064,59.733-39.936h-40.789c-14.14,0-25.6-11.46-25.6-25.6c0-14.14,11.46-25.6,25.6-25.6h136.533
		c42.419,0,76.8-34.381,76.8-76.8S392.286,170.667,349.867,170.667z"/>
	<path style="fill:#4398D1;" d="M315.733,439.467c0.017-7.27-1.22-14.49-3.669-21.333l-0.597-1.28
		c-4.215,0.853-8.499,1.289-12.8,1.28h-37.205c-1.562-0.085-3.132-0.085-4.693,0c10.172,5.453,16.452,16.111,16.299,27.648v1.451
		c-0.06,8.559-3.9,16.649-10.496,22.101l-12.203,10.24l-5.547,4.608c-4.548,3.823-5.137,10.598-1.314,15.147
		c1.835,2.185,4.454,3.55,7.287,3.797H256C289.562,500.924,315.674,473.097,315.733,439.467z"/>
</g>
<g>
	<path style="fill:#3E8CC7;" d="M271.104,435.2h44.629c-0.316-5.811-1.434-11.563-3.328-17.067l-0.597-1.28
		c-4.326,0.879-8.73,1.306-13.141,1.28h-37.205c-1.562-0.085-3.132-0.085-4.693,0C263.509,421.837,268.621,427.921,271.104,435.2z"
		/>
	<path style="fill:#3E8CC7;" d="M446.72,8.533C422.4,83.627,335.701,112.64,273.067,128v8.533h102.4
		c23.561,0,42.667-19.106,42.667-42.667c23.561,0,42.667-19.106,42.667-42.667c23.561,0,42.667-19.106,42.667-42.667H446.72z"/>
</g>
<path d="M503.467,0H358.4c-28.279,0-51.2,22.921-51.2,51.2c-0.051,15.522-10.573,29.056-25.6,32.939V56.747
	c12.467-14.14,11.119-35.712-3.021-48.179s-35.712-11.11-48.179,3.021c-11.375,12.902-11.375,32.256,0,45.158v27.392
	c-15.027-3.883-25.549-17.417-25.6-32.939c0-28.279-22.921-51.2-51.2-51.2H8.533C3.823,0,0,3.823,0,8.533
	c-0.009,25.225,18.347,46.694,43.264,50.603c3.439,21.982,20.685,39.228,42.667,42.667c3.908,24.917,25.378,43.273,50.603,43.264
	H230.4v128h-68.267c-14.14,0-25.6-11.46-25.6-25.6c0-14.14,11.46-25.6,25.6-25.6H204.8c4.71,0,8.533-3.823,8.533-8.533v-17.067
	c0.017-2.27-0.879-4.446-2.475-6.059l-25.6-25.6c-1.613-1.596-3.789-2.492-6.059-2.475h-17.067
	c-47.13,0.119-85.239,38.417-85.12,85.547c0.094,38.195,25.557,71.671,62.336,81.963c-1.852,6.579-2.799,13.389-2.816,20.224
	c0.017,30.959,18.62,58.889,47.189,70.827c-1.681,6.118-2.543,12.433-2.56,18.773c-0.034,38.955,30.711,70.972,69.632,72.533h0.939
	h1.963H256c38.281-2.338,68.156-34.014,68.267-72.363c-0.009-5.572-0.666-11.136-1.963-16.555
	c39.014-12.638,61.218-53.7,50.432-93.269c45.483-12.356,72.329-59.238,59.972-104.721c-10.146-37.342-44.143-63.181-82.842-62.959
	H332.8c-2.27-0.017-4.446,0.879-6.059,2.475l-25.6,25.6c-1.596,1.613-2.492,3.789-2.475,6.059v17.067
	c0,4.71,3.823,8.533,8.533,8.533h42.667c14.14,0,25.6,11.46,25.6,25.6c0,14.14-11.46,25.6-25.6,25.6H281.6v-128h93.867
	c25.225,0.009,46.694-18.347,50.603-43.264c21.982-3.439,39.228-20.685,42.667-42.667C493.653,55.228,512.009,33.758,512,8.533
	C512,3.823,508.177,0,503.467,0z M136.533,128c-15.556-0.009-29.133-10.539-33.024-25.6h41.557c4.71,0,8.533-3.823,8.533-8.533
	c0-4.71-3.823-8.533-8.533-8.533h-51.2c-15.556-0.009-29.133-10.539-33.024-25.6h50.091c4.71,0,8.533-3.823,8.533-8.533
	s-3.823-8.533-8.533-8.533H51.2c-15.556-0.009-29.133-10.539-33.024-25.6H153.6c18.85,0,34.133,15.283,34.133,34.133
	c0.026,24.969,18.048,46.268,42.667,50.432V128H136.533z M93.867,247.467c0-37.7,30.566-68.267,68.267-68.267h13.568l20.565,20.565
	v5.035h-34.133c-23.561,0-42.667,19.106-42.667,42.667s19.106,42.667,42.667,42.667h3.072c-8.03,6.46-14.677,14.473-19.541,23.552
	C115.243,306.125,93.884,278.818,93.867,247.467z M245.675,460.8c-3.046-3.772-4.727-8.465-4.779-13.312
	c-0.145-11.358,8.951-20.676,20.309-20.821c0.085,0,0.171,0,0.256,0h3.072v20.565c-0.026,6.076-2.739,11.827-7.424,15.701
	l-5.632,4.693L245.675,460.8z M307.2,439.467c0.051,30.259-24.192,54.955-54.443,55.467h-1.451
	c-0.794-0.119-1.459-0.683-1.707-1.451c-0.384-0.879-0.094-1.911,0.683-2.475l17.835-14.848c8.559-7.168,13.5-17.766,13.483-28.928
	v-20.565h17.067c2.304,0,4.523,0,6.741,0C306.534,430.839,307.14,435.14,307.2,439.467z M358.4,349.867
	c0,32.99-26.743,59.733-59.733,59.733l0,0h-37.205c-20.83,0.043-37.683,16.973-37.632,37.803c0,0.026,0,0.06,0,0.085
	c0.128,8.636,3.132,16.981,8.533,23.723l6.144,7.509c-3.328,3.174-5.393,7.45-5.803,12.032
	c-28.322-11.665-41.83-44.092-30.157-72.414c8.542-20.736,28.723-34.287,51.149-34.338h44.971c18.85,0,34.133-15.283,34.133-34.133
	c-0.026-6.016-1.673-11.913-4.779-17.067h21.845c2.048,0,4.011,0,5.973,0C357.513,338.338,358.374,344.081,358.4,349.867z
	 M315.733,349.867c0,9.429-7.637,17.067-17.067,17.067H281.6V332.8h17.067C308.096,332.8,315.733,340.437,315.733,349.867z
	 M264.533,366.933h-17.067V332.8h17.067V366.933z M230.4,366.933h-17.067c-9.429,0-17.067-7.637-17.067-17.067
	c0-9.429,7.637-17.067,17.067-17.067H230.4V366.933z M349.867,290.133c23.561,0,42.667-19.106,42.667-42.667
	S373.427,204.8,349.867,204.8h-34.133v-5.035l20.565-20.565h13.568c37.7,0,68.267,30.566,68.267,68.267
	s-30.566,68.267-68.267,68.267H213.333c-18.85,0.384-33.818,15.966-33.434,34.816c0.324,16.154,11.93,29.867,27.802,32.853
	c-7.194,5.956-13.184,13.227-17.664,21.419c-30.353-12.928-44.476-48.017-31.548-78.362c9.37-21.99,30.942-36.284,54.844-36.326
	H349.867z M247.467,273.067V53.248c0.017-2.441-1.007-4.77-2.816-6.4c-3.627-3.234-5.709-7.859-5.717-12.715
	c0-9.429,7.637-17.067,17.067-17.067c9.429,0,17.067,7.637,17.067,17.067c-0.009,4.855-2.091,9.481-5.717,12.715
	c-1.809,1.63-2.833,3.959-2.816,6.4v219.819H247.467z M460.8,42.667h-59.733c-4.71,0-8.533,3.823-8.533,8.533
	s3.823,8.533,8.533,8.533h50.091c-3.891,15.061-17.468,25.591-33.024,25.6h-51.2c-4.71,0-8.533,3.823-8.533,8.533
	c0,4.71,3.823,8.533,8.533,8.533h41.557c-3.891,15.061-17.468,25.591-33.024,25.6H281.6v-26.368
	c24.619-4.164,42.641-25.463,42.667-50.432c0-18.85,15.283-34.133,34.133-34.133h135.424
	C489.933,32.128,476.356,42.658,460.8,42.667z"/>
<g>
</g>
<g>
</g>
<g>
</g>
<g>
</g>
<g>
</g>
<g>
</g>
<g>
</g>
<g>
</g>
<g>
</g>
<g>
</g>
<g>
</g>
<g>
</g>
<g>
</g>
<g>
</g>
<g>
</g>
</svg>
