<?xml version="1.0" encoding="iso-8859-1"?>
<!-- Generator: Adobe Illustrator 19.0.0, SVG Export Plug-In . SVG Version: 6.00 Build 0)  -->
<svg version="1.1" id="Capa_1" xmlns="http://www.w3.org/2000/svg" xmlns:xlink="http://www.w3.org/1999/xlink" x="0px" y="0px"
	 viewBox="0 0 512 512" style="enable-background:new 0 0 512 512;" xml:space="preserve">
<path style="fill:#57555C;" d="M435.75,446v40h-360v-40c0-11.05,8.95-20,20-20c11.036,0,308.749,0,320,0
	C426.8,426,435.75,434.95,435.75,446z"/>
<path style="fill:#ED5151;" d="M361.41,235.27L395.43,426H116.07l34.03-190.73c5.18-28.53,30.03-49.27,59.03-49.27h93.24
	C331.37,186,356.22,206.74,361.41,235.27z"/>
<path d="M336,266c0-5.52-4.48-10-10-10s-10,4.48-10,10s4.48,10,10,10S336,271.52,336,266z"/>
<path d="M416,416h-11.946l-32.555-182.521C365.439,200.174,336.472,176,302.62,176h-93.24c-33.858,0-62.822,24.175-68.875,57.513
	L107.946,416H96c-16.542,0-30,13.458-30,30v40c0,5.522,4.477,10,10,10h360c5.522,0,10-4.478,10-10v-40
	C446,429.458,432.542,416,416,416z M160.189,237.056C164.508,213.267,185.196,196,209.38,196h93.24
	c24.181,0,44.873,17.268,49.195,41.025L383.738,416H128.262L160.189,237.056z M426,476H86v-30c0-5.514,4.486-10,10-10
	c22.473,0,306.383,0,320,0c5.514,0,10,4.486,10,10V476z"/>
<path d="M358.239,384.213l-14.67-80.75c-0.987-5.436-6.202-9.044-11.626-8.052c-5.435,0.987-9.039,6.192-8.052,11.626l14.67,80.75
	c0.994,5.476,6.242,9.036,11.626,8.052C355.622,394.852,359.227,389.646,358.239,384.213z"/>
<path d="M502,256h-86c-5.522,0-10,4.478-10,10s4.478,10,10,10h86c5.522,0,10-4.478,10-10S507.522,256,502,256z"/>
<path d="M0,266c0,5.522,4.477,10,10,10h86c5.523,0,10-4.478,10-10s-4.477-10-10-10H10C4.477,256,0,260.478,0,266z"/>
<path d="M432.781,89.219c-3.906-3.904-10.236-3.904-14.143,0l-56.57,56.57c-3.905,3.905-3.905,10.237,0,14.143
	c3.907,3.905,10.236,3.904,14.143,0l56.57-56.57C436.687,99.456,436.687,93.124,432.781,89.219z"/>
<path d="M79.219,89.219c-3.905,3.905-3.905,10.237,0,14.143l56.57,56.57c3.907,3.905,10.237,3.905,14.143,0
	c3.905-3.905,3.905-10.237,0-14.143l-56.57-56.57C89.456,85.315,83.125,85.314,79.219,89.219z"/>
<path d="M266,106V26c0-5.522-4.478-10-10-10s-10,4.478-10,10v80c0,5.522,4.478,10,10,10S266,111.522,266,106z"/>
<g>
</g>
<g>
</g>
<g>
</g>
<g>
</g>
<g>
</g>
<g>
</g>
<g>
</g>
<g>
</g>
<g>
</g>
<g>
</g>
<g>
</g>
<g>
</g>
<g>
</g>
<g>
</g>
<g>
</g>
</svg>
