<?xml version="1.0" encoding="iso-8859-1"?>
<!-- Generator: Adobe Illustrator 19.0.0, SVG Export Plug-In . SVG Version: 6.00 Build 0)  -->
<svg version="1.1" id="Capa_1" xmlns="http://www.w3.org/2000/svg" xmlns:xlink="http://www.w3.org/1999/xlink" x="0px" y="0px"
	 viewBox="0 0 512 512" style="enable-background:new 0 0 512 512;" xml:space="preserve">
<path style="fill:#ED5151;" d="M479.65,301.84l-0.47,0.16H331.75V176c0-11.05-8.95-20-20-20h-262c-11.05,0-20,8.95-20,20v246h452
	V314.61C481.75,310.24,481.04,305.93,479.65,301.84z"/>
<path style="fill:#E3F2FF;" d="M331.75,302V202h69.59c6.52,0,12.64,3.18,16.38,8.53l56.8,81.14c2.2,3.14,3.93,6.57,5.13,10.17
	l-0.47,0.16H331.75z"/>
<path style="fill:#57555C;" d="M471.75,442c0,33.09-26.91,60-60,60s-60-26.91-60-60c0-32.954,26.772-60,60-60
	C444.966,382,471.75,409.035,471.75,442z"/>
<g>
	<path style="fill:#E3F2FF;" d="M411.75,422c11.03,0,20,8.97,20,20s-8.97,20-20,20s-20-8.97-20-20S400.72,422,411.75,422z"/>
	<polygon style="fill:#E3F2FF;" points="235.75,262 235.75,302 195.75,302 195.75,342 155.75,342 155.75,302 115.75,302 115.75,262 
		155.75,262 155.75,222 195.75,222 195.75,262 	"/>
</g>
<path style="fill:#FEC459;" d="M215.75,110v46h-80v-46c0-22.09,17.91-40,40-40C197.829,70,215.75,87.919,215.75,110z"/>
<path style="fill:#57555C;" d="M185.75,442c0,33.09-26.91,60-60,60s-60-26.91-60-60c0-32.954,26.772-60,60-60
	C158.966,382,185.75,409.035,185.75,442z"/>
<path style="fill:#E3F2FF;" d="M125.75,422c11.03,0,20,8.97,20,20s-8.97,20-20,20s-20-8.97-20-20S114.72,422,125.75,422z"/>
<path d="M432,352c5.52,0,10-4.48,10-10s-4.48-10-10-10s-10,4.48-10,10S426.48,352,432,352z"/>
<path d="M392,332h-20c-5.522,0-10,4.477-10,10s4.478,10,10,10h20c5.522,0,10-4.477,10-10S397.522,332,392,332z"/>
<path d="M116,312h30v30c0,5.523,4.477,10,10,10h40c5.523,0,10-4.477,10-10v-30h30c5.522,0,10-4.477,10-10v-40
	c0-5.523-4.478-10-10-10h-30v-30c0-5.523-4.477-10-10-10h-40c-5.523,0-10,4.477-10,10v30h-30c-5.523,0-10,4.477-10,10v40
	C106,307.523,110.477,312,116,312z M126,272h30c5.523,0,10-4.477,10-10v-30h20v30c0,5.523,4.477,10,10,10h30v20h-30
	c-5.523,0-10,4.477-10,10v30h-20v-30c0-5.523-4.477-10-10-10h-30V272z"/>
<path d="M502,412h-10v-97.39c0-10.68-3.407-20.638-9.038-28.675l-56.796-81.134C420.563,196.785,411.376,192,401.59,192H342v-16
	c0-16.542-13.458-30-30-30h-86v-36c0-27.622-22.374-50-50-50c-27.57,0-50,22.43-50,50v36H50c-16.542,0-30,13.458-30,30v236H10
	c-5.523,0-10,4.477-10,10s4.477,10,10,10h46.728C56.253,435.298,56,438.635,56,442c0,38.598,31.402,70,70,70s70-31.402,70-70
	c0-3.365-0.253-6.802-0.728-10.1h147.456c-0.475,3.298-0.728,6.735-0.728,10.1c0,38.598,31.402,70,70,70s70-31.402,70-70
	c0-3.365-0.253-6.702-0.728-10H502c5.522,0,10-4.477,10-10S507.522,412,502,412z M348.771,412H342V312h129.881
	c0.075,0.865,0.119,1.735,0.119,2.61v91.361C459.511,385.218,436.838,372,412,372C384.834,372,360.264,387.814,348.771,412z
	 M401.59,212c3.261,0,6.319,1.592,8.188,4.265L462.794,292H356.143l22.929-22.929c3.905-3.905,3.905-10.237,0-14.143
	c-3.906-3.905-10.236-3.905-14.143,0L342,277.857V212H401.59z M146,110c0-16.542,13.458-30,30-30c16.569,0,30,13.429,30,30v36h-60
	V110z M40,176c0-5.514,4.486-10,10-10h262c5.514,0,10,4.486,10,10c0,13.517,0,231.339,0,236H189.229
	c-11.495-24.187-36.065-40-63.229-40c-27.166,0-51.736,15.814-63.229,40H40V176z M126,492c-27.57,0-50-22.43-50-50
	c0-27.662,22.542-50,50-50c27.559,0,50,22.43,50,50S153.57,492,126,492z M412,492c-27.57,0-50-22.43-50-50c0-27.723,22.596-50,50-50
	c21.135,0,40.08,13.398,47.145,33.339c0,0.001,0,0.002,0.001,0.003C461.039,430.684,462,436.289,462,442
	C462,469.57,439.57,492,412,492z"/>
<path d="M412,412c-16.542,0-30,13.458-30,30s13.458,30,30,30s30-13.458,30-30S428.542,412,412,412z M412,452
	c-5.514,0-10-4.486-10-10s4.486-10,10-10s10,4.486,10,10S417.514,452,412,452z"/>
<path d="M126,412c-16.542,0-30,13.458-30,30s13.458,30,30,30s30-13.458,30-30S142.542,412,126,412z M126,452
	c-5.514,0-10-4.486-10-10s4.486-10,10-10c5.514,0,10,4.486,10,10S131.514,452,126,452z"/>
<path d="M186,30V10c0-5.523-4.477-10-10-10s-10,4.477-10,10v20c0,5.523,4.477,10,10,10S186,35.523,186,30z"/>
<path d="M66,110c0,5.523,4.477,10,10,10h20c5.523,0,10-4.477,10-10s-4.477-10-10-10H76C70.477,100,66,104.477,66,110z"/>
<path d="M246,110c0,5.523,4.478,10,10,10h20c5.522,0,10-4.477,10-10s-4.478-10-10-10h-20C250.478,100,246,104.477,246,110z"/>
<path d="M239.639,32.219l-14.14,14.14c-3.905,3.905-3.905,10.237,0,14.143c3.905,3.905,10.237,3.905,14.143,0l14.14-14.14
	c3.905-3.905,3.905-10.237,0-14.143C249.875,28.313,243.545,28.313,239.639,32.219z"/>
<path d="M112.359,60.501c3.905,3.905,10.237,3.905,14.143,0c3.905-3.905,3.905-10.237,0-14.143l-14.14-14.14
	c-3.905-3.905-10.237-3.905-14.143,0s-3.905,10.237,0,14.143L112.359,60.501z"/>
<g>
</g>
<g>
</g>
<g>
</g>
<g>
</g>
<g>
</g>
<g>
</g>
<g>
</g>
<g>
</g>
<g>
</g>
<g>
</g>
<g>
</g>
<g>
</g>
<g>
</g>
<g>
</g>
<g>
</g>
</svg>
