<?xml version="1.0" encoding="iso-8859-1"?>
<!-- Generator: Adobe Illustrator 19.0.0, SVG Export Plug-In . SVG Version: 6.00 Build 0)  -->
<svg version="1.1" id="Capa_1" xmlns="http://www.w3.org/2000/svg" xmlns:xlink="http://www.w3.org/1999/xlink" x="0px" y="0px"
	 viewBox="0 0 512 512" style="enable-background:new 0 0 512 512;" xml:space="preserve">
<path style="fill:#57555C;" d="M395.897,183.739l20.243-20.699c7.82-7.81,7.82-20.47,0-28.29c-7.81-7.81-20.47-7.81-28.28,0
	l-21.5,22.07l-0.32,0.446c-23.325-16.662-50.616-28.202-80.29-32.906V76h40V10h-140v66h40v48.36c-90.68,14.38-160,92.92-160,187.64
	c0,104.93,85.07,190,190,190s190-85.07,190-190C445.75,262.754,426.916,217.643,395.897,183.739z"/>
<path style="fill:#ADE6FF;" d="M255.75,462c-82.71,0-150-67.29-150-150c0-82.673,67.033-150,150-150c82.879,0,150,67.213,150,150
	C405.75,394.71,338.46,462,255.75,462z"/>
<path style="fill:#ED5151;" d="M345.75,292.65c0-26.49-18.36-48.85-45-48.85c-34.2,0-45,39-45,39s-10.8-39-45-39
	c-26.64,0-45,22.36-45,48.85c0,36.63,36.62,60.89,90,107.15C309.12,353.54,345.75,329.28,345.75,292.65z"/>
<path d="M256,172c5.52,0,10-4.48,10-10s-4.48-10-10-10s-10,4.48-10,10S250.48,172,256,172z"/>
<path d="M249.451,407.356c1.879,1.629,4.214,2.443,6.549,2.443s4.671-0.814,6.55-2.443C317.538,359.693,356,334.473,356,292.65
	c0-32.073-22.84-58.851-55-58.851c-22.734,0-36.83,13.443-45,25.858c-8.17-12.415-22.265-25.858-45-25.858
	c-32.191,0-55,26.814-55,58.851C156,334.502,194.544,359.778,249.451,407.356z M211,253.8c26.045,0,35.004,30.408,35.372,31.703
	c1.211,4.313,5.145,7.297,9.628,7.297c4.495,0,8.437-2.999,9.638-7.331c0.087-0.317,9.073-31.669,35.362-31.669
	c19.953,0,35,16.702,35,38.851c0,30.109-31.152,52.11-80.001,93.951C207.423,344.991,176,322.807,176,292.65
	C176,270.502,191.047,253.8,211,253.8z"/>
<path d="M56,312c0,110.28,89.72,200,200,200s200-89.72,200-200c0-46.933-16.338-91.963-46.19-127.835l13.705-14.108
	c11.683-11.731,11.658-30.665-0.055-42.378c-11.723-11.723-30.697-11.725-42.422,0c-0.03,0.031-0.062,0.063-0.092,0.094
	l-16.06,16.486c-20.954-13.611-44.477-23.249-68.887-28.225V86h30c5.522,0,10-4.478,10-10V10c0-5.522-4.478-10-10-10H186
	c-5.523,0-10,4.478-10,10v66c0,5.522,4.477,10,10,10h30v30.012C123.838,134.757,56,216.142,56,312z M256,492
	c-99.252,0-180-80.748-180-180c0-100.713,80.768-180,180-180c98.63,0,180,79.81,180,180C436,411.252,355.252,492,256,492z
	 M409.318,141.821c3.641,3.641,4.222,9.808-0.102,14.251l-12.968,13.349c-4.768-4.691-9.777-9.134-14.981-13.317l13.952-14.322
	C399.12,137.924,405.435,137.936,409.318,141.821z M196,20h120v46H196V20z M276,86v26.998c-13.264-1.313-26.736-1.313-40,0V86H276z"
	/>
<path d="M298.295,157.677c-5.325-1.463-10.827,1.673-12.288,6.999s1.673,10.828,6.999,12.288C353.647,193.593,396,249.121,396,312
	c0,77.196-62.804,140-140,140s-140-62.804-140-140c0-5.522-4.477-10-10-10s-10,4.478-10,10c0,88.225,71.776,160,160,160
	c88.225,0,160-71.775,160-160C416,240.14,367.598,176.68,298.295,157.677z"/>
<g>
</g>
<g>
</g>
<g>
</g>
<g>
</g>
<g>
</g>
<g>
</g>
<g>
</g>
<g>
</g>
<g>
</g>
<g>
</g>
<g>
</g>
<g>
</g>
<g>
</g>
<g>
</g>
<g>
</g>
</svg>
