<svg id="Layer_1" enable-background="new 0 0 512 512" height="512" viewBox="0 0 512 512" width="512" xmlns="http://www.w3.org/2000/svg"><path d="m301.206 502h140.758v-117.244h-371.928v117.244h140.758" fill="#ffee80"/><path d="m127.666 317.604v-59.586c0-41.276 33.461-74.737 74.737-74.737h107.194c41.276 0 74.737 33.461 74.737 74.737v59.586z" fill="#66e0f7"/><ellipse cx="256" cy="96.641" fill="#ffdcd5" rx="86.641" ry="86.641" transform="matrix(.707 -.707 .707 .707 6.645 209.325)"/><path d="m157 453.378h-27.333c-5.523 0-10-4.478-10-10s4.478-10 10-10h27.333c5.523 0 10 4.478 10 10s-4.477 10-10 10z"/><path d="m232.111 453.378h-27.334c-5.522 0-10-4.478-10-10s4.478-10 10-10h27.334c5.523 0 10 4.478 10 10s-4.477 10-10 10z"/><path d="m307.223 453.378h-27.334c-5.522 0-10-4.478-10-10s4.478-10 10-10h27.334c5.522 0 10 4.478 10 10s-4.478 10-10 10z"/><path d="m382.333 453.378h-27.333c-5.522 0-10-4.478-10-10s4.478-10 10-10h27.333c5.522 0 10 4.478 10 10s-4.478 10-10 10z"/><path d="m255.819 512c-4.233 0-8.084-2.765-9.462-6.763-1.363-3.954-.037-8.474 3.248-11.067 3.242-2.559 7.805-2.844 11.352-.739 3.58 2.125 5.489 6.439 4.663 10.519-.934 4.616-5.079 8.05-9.801 8.05z"/><path d="m441.964 512h-140.758c-5.522 0-10-4.478-10-10s4.478-10 10-10h130.758v-97.244h-351.928v97.244h130.758c5.523 0 10 4.478 10 10s-4.477 10-10 10h-140.758c-5.522 0-10-4.478-10-10v-117.244c0-5.522 4.478-10 10-10h371.928c5.522 0 10 4.478 10 10v117.244c0 5.522-4.478 10-10 10z"/><path d="m314.616 173.428c23.1-17.675 38.025-45.521 38.025-76.788 0-53.287-43.353-96.64-96.641-96.64s-96.641 43.353-96.641 96.641c0 31.267 14.925 59.113 38.025 76.788-44.398 2.606-79.719 39.55-79.719 84.59v59.586c0 5.523 4.478 10 10 10h256.668c5.522 0 10-4.477 10-10v-59.586c.001-45.04-35.32-81.985-79.717-84.591zm-135.257-76.787c0-42.26 34.381-76.641 76.641-76.641s76.641 34.381 76.641 76.641-34.381 76.641-76.641 76.641-76.641-34.382-76.641-76.641zm194.975 210.963h-236.668v-49.586c0-35.696 29.041-64.737 64.737-64.737h107.193c35.696 0 64.737 29.041 64.737 64.737v49.586z"/></svg>