<?xml version="1.0" encoding="iso-8859-1"?>
<!-- Generator: Adobe Illustrator 19.0.0, SVG Export Plug-In . SVG Version: 6.00 Build 0)  -->
<svg version="1.1" id="Capa_1" xmlns="http://www.w3.org/2000/svg" xmlns:xlink="http://www.w3.org/1999/xlink" x="0px" y="0px"
	 viewBox="0 0 512.001 512.001" style="enable-background:new 0 0 512.001 512.001;" xml:space="preserve">
<path style="fill:#FFCDB3;" d="M397.156,256.003l75.283-75.283c39.042-39.042,39.057-102.35,0-141.407
	c-39.046-39.046-102.361-39.046-141.407,0l-75.283,75.283l-75.283-75.283c-39.042-39.042-102.35-39.057-141.407,0
	c-39.046,39.046-39.046,102.361,0,141.407l75.283,75.283l-75.283,75.283c-39.046,39.046-39.046,102.361,0,141.407
	s102.361,39.046,141.407,0l75.283-75.283l75.283,75.283c39.046,39.046,102.361,39.046,141.407,0s39.046-102.361,0-141.407
	L397.156,256.003z"/>
<path style="fill:#FFFFFF;" d="M397.156,256.003L255.749,397.41L114.342,256.003l141.407-141.407L397.156,256.003z M262.818,168.941
	c-3.9-3.91-10.239-3.91-14.139,0 M248.68,343.065c3.9,3.91,10.239,3.91,14.139,0 M168.687,248.934c-3.91,3.9-3.91,10.239,0,14.139"
	/>
<path d="M454.701,71.44c3.91-3.9,3.91-10.239,0-14.139c-3.9-3.91-10.239-3.91-14.139,0c-3.91,3.9-3.91,10.239,0,14.139
	C444.462,75.35,450.801,75.35,454.701,71.44z"/>
<path d="M343.061,263.073c3.91-3.9,3.91-10.239,0-14.139c-3.9-3.91-10.239-3.91-14.139,0c-3.91,3.9-3.91,10.239,0,14.139
	C332.822,266.982,339.161,266.982,343.061,263.073z"/>
<path d="M303.065,223.076c3.91-3.9,3.91-10.239,0-14.139c-3.9-3.91-10.239-3.91-14.139,0c-3.91,3.9-3.91,10.239,0,14.139
	C292.826,226.986,299.165,226.986,303.065,223.076z"/>
<path d="M303.065,303.069c3.91-3.9,3.91-10.239,0-14.139c-3.9-3.91-10.239-3.91-14.139,0c-3.91,3.9-3.91,10.239,0,14.139
	C292.826,306.979,299.165,306.979,303.065,303.069z"/>
<path d="M248.93,168.941c-3.91,3.9-3.91,10.239,0,14.139c3.9,3.91,10.239,3.91,14.139,0c3.91-3.9,3.91-10.239,0-14.139
	C259.169,165.032,252.829,165.032,248.93,168.941z"/>
<path d="M248.93,248.934c-3.91,3.9-3.91,10.239,0,14.139c3.9,3.91,10.239,3.91,14.139,0c3.91-3.9,3.91-10.239,0-14.139
	C259.169,245.024,252.829,245.024,248.93,248.934z"/>
<path d="M248.93,328.927c-3.91,3.9-3.91,10.239,0,14.139c3.9,3.91,10.239,3.91,14.139,0c3.91-3.9,3.91-10.239,0-14.139
	C259.169,325.017,252.829,325.017,248.93,328.927z"/>
<path d="M208.933,208.938c-3.91,3.9-3.91,10.239,0,14.139c3.9,3.91,10.239,3.91,14.139,0c3.91-3.9,3.91-10.239,0-14.139
	C219.172,205.028,212.833,205.028,208.933,208.938z"/>
<path d="M208.933,288.93c-3.91,3.9-3.91,10.239,0,14.139c3.9,3.91,10.239,3.91,14.139,0c3.91-3.9,3.91-10.239,0-14.139
	C219.172,285.021,212.833,285.021,208.933,288.93z"/>
<path d="M168.937,248.934c-3.91,3.9-3.91,10.239,0,14.139c3.9,3.91,10.239,3.91,14.139,0c3.91-3.9,3.91-10.239,0-14.139
	C179.176,245.024,172.837,245.024,168.937,248.934z"/>
<path d="M32.239,479.763c42.98,42.98,112.561,42.988,155.549,0l68.212-68.213l68.213,68.213c42.982,42.981,112.561,42.987,155.549,0
	c42.981-42.983,42.986-112.561,0-155.549l-68.213-68.213l68.213-68.213c42.984-42.984,42.99-112.559,0-155.548
	c-42.98-42.98-112.561-42.988-155.549,0l-68.213,68.213l-68.213-68.213c-42.987-42.985-112.557-42.99-155.549,0
	c-42.981,42.983-42.986,112.561,0,155.549l68.213,68.213l-68.213,68.213C-10.742,367.198-10.747,436.777,32.239,479.763z
	 M465.619,338.356c35.088,35.088,35.088,92.18,0,127.266c-35.087,35.088-92.18,35.088-127.265,0l-68.213-68.213l127.266-127.265
	L465.619,338.356z M255.999,383.269L128.734,256.003L256,128.737l127.265,127.265L255.999,383.269z M338.353,46.383
	c35.087-35.088,92.178-35.089,127.265,0c35.17,35.169,35.174,92.093,0,127.265l-68.213,68.213L270.141,114.596L338.353,46.383z
	 M46.379,173.649c-35.088-35.087-35.088-92.179,0-127.266c35.169-35.169,92.092-35.174,127.265,0l68.213,68.213L114.592,241.862
	L46.379,173.649z M114.592,270.144l127.265,127.265l-68.213,68.213c-35.087,35.088-92.18,35.088-127.265,0
	c-35.088-35.087-35.088-92.179,0-127.265L114.592,270.144z"/>
<path d="M404.476,206.519l47.008-47.009c15.548-15.559,22.777-37.026,19.836-58.896c-0.736-5.473-5.766-9.311-11.243-8.577
	c-5.473,0.736-9.312,5.769-8.577,11.243c2.104,15.641-3.058,30.983-14.159,42.092l-47.006,47.006
	c-3.905,3.905-3.905,10.236,0,14.142C394.24,210.422,400.571,210.423,404.476,206.519z"/>
<g>
</g>
<g>
</g>
<g>
</g>
<g>
</g>
<g>
</g>
<g>
</g>
<g>
</g>
<g>
</g>
<g>
</g>
<g>
</g>
<g>
</g>
<g>
</g>
<g>
</g>
<g>
</g>
<g>
</g>
</svg>
