<?xml version="1.0" encoding="iso-8859-1"?>
<!-- Generator: Adobe Illustrator 19.0.0, SVG Export Plug-In . SVG Version: 6.00 Build 0)  -->
<svg version="1.1" id="Capa_1" xmlns="http://www.w3.org/2000/svg" xmlns:xlink="http://www.w3.org/1999/xlink" x="0px" y="0px"
	 viewBox="0 0 512 512" style="enable-background:new 0 0 512 512;" xml:space="preserve">
<path style="fill:#E3F2FF;" d="M255.75,186c87.45,0,171.72,51.82,230.33,111.51C440.91,374.4,351.36,426,255.75,426
	S70.59,374.4,25.42,297.51C84.03,237.82,168.3,186,255.75,186z"/>
<path style="fill:#4DBBEB;" d="M325.75,306c0-38.66-31.34-70-70-70c-39.637,0-70,32.647-70,70c0,38.66,31.34,70,70,70
	C294.413,376,325.75,344.658,325.75,306z"/>
<path style="fill:#57555C;" d="M255.75,286c11.05,0,20,8.95,20,20s-8.95,20-20,20c-11.05,0-20-8.95-20-20S244.7,286,255.75,286z"/>
<path d="M203.07,273.07c3.91-3.9,3.91-10.24,0-14.14c-3.9-3.91-10.24-3.91-14.14,0c-3.91,3.9-3.91,10.24,0,14.14
	C192.83,276.98,199.17,276.98,203.07,273.07z"/>
<path d="M286,306c0-16.542-13.458-30-30-30s-30,13.458-30,30s13.458,30,30,30S286,322.542,286,306z M246,306c0-5.514,4.486-10,10-10
	s10,4.486,10,10s-4.486,10-10,10S246,311.514,246,306z"/>
<path d="M256,386c44.112,0,80-35.888,80-80s-35.888-80-80-80c-11.178,0-21.987,2.259-32.124,6.715
	c-5.056,2.223-7.353,8.123-5.131,13.179s8.123,7.352,13.179,5.131C239.509,247.691,247.61,246,256,246c33.084,0,60,26.916,60,60
	s-26.916,60-60,60s-60-26.916-60-60c0-0.342-0.001-0.676,0.007-1.018c0.128-5.521-4.244-10.101-9.765-10.229
	c-5.53-0.138-10.101,4.243-10.229,9.765C176.001,305.016,176,305.502,176,306C176,350.112,211.888,386,256,386z"/>
<path d="M266,146V86c0-5.523-4.477-10-10-10s-10,4.477-10,10v60c0,5.523,4.477,10,10,10C261.523,156,266,151.523,266,146z"/>
<path d="M144.281,164.281c3.905-3.905,3.905-10.237,0-14.143l-42.42-42.42c-3.905-3.905-10.237-3.905-14.143,0
	c-3.905,3.905-3.905,10.237,0,14.143l42.42,42.42C134.043,168.186,140.376,168.187,144.281,164.281z"/>
<path d="M381.862,164.281l42.42-42.42c3.905-3.905,3.905-10.237,0-14.143c-3.905-3.905-10.237-3.905-14.143,0l-42.42,42.42
	c-3.905,3.905-3.905,10.237,0,14.143C371.623,168.186,377.956,168.187,381.862,164.281z"/>
<path d="M2.505,307.71c-3.656,4.14-3.264,10.459,0.875,14.115c4.14,3.656,10.46,3.264,14.115-0.875
	c2.131-2.413,4.314-4.817,6.525-7.206C73.435,388.408,163.013,436,256,436s182.565-47.592,231.98-122.256
	c2.211,2.39,4.394,4.794,6.525,7.206c3.644,4.126,9.963,4.542,14.115,0.875c4.139-3.656,4.531-9.976,0.875-14.115
	C445.97,235.791,351.646,176,256,176C160.341,176,66.018,235.806,2.505,307.71z M256,196c99.74,0,182.061,68.109,217.689,103.019
	C428.471,370.321,343.915,416,256,416S83.529,370.321,38.311,299.02C73.939,264.109,156.261,196,256,196z"/>
<g>
</g>
<g>
</g>
<g>
</g>
<g>
</g>
<g>
</g>
<g>
</g>
<g>
</g>
<g>
</g>
<g>
</g>
<g>
</g>
<g>
</g>
<g>
</g>
<g>
</g>
<g>
</g>
<g>
</g>
</svg>
