<?xml version="1.0" encoding="iso-8859-1"?>
<!-- Generator: Adobe Illustrator 19.0.0, SVG Export Plug-In . SVG Version: 6.00 Build 0)  -->
<svg version="1.1" id="Capa_1" xmlns="http://www.w3.org/2000/svg" xmlns:xlink="http://www.w3.org/1999/xlink" x="0px" y="0px"
	 viewBox="0 0 512 512" style="enable-background:new 0 0 512 512;" xml:space="preserve">
<path style="fill:#57555C;" d="M415.75,50h-320c-11.05,0-20,8.95-20,20v412c0,11.05,8.95,20,20,20h320c11.05,0,20-8.95,20-20V70
	C435.75,58.95,426.8,50,415.75,50z"/>
<rect x="115.75" y="90" style="fill:#E3F2FF;" width="280" height="372"/>
<path style="fill:#ED5151;" d="M255.75,156c33.14,0,60,26.86,60,60s-26.86,60-60,60s-60-26.86-60-60S222.61,156,255.75,156z"/>
<path style="fill:#FEC459;" d="M335.75,50v40h-160V50h40c0-22.09,17.91-40,40-40s40,17.91,40,40H335.75z"/>
<path d="M176,346c5.52,0,10-4.48,10-10s-4.48-10-10-10s-10,4.48-10,10S170.48,346,176,346z"/>
<path d="M304.995,40C300.35,17.206,280.146,0,256,0s-44.35,17.206-48.995,40C196.616,40,106.953,40,96,40c-16.542,0-30,13.458-30,30
	v412c0,16.542,13.458,30,30,30h320c16.542,0,30-13.458,30-30V70c0-16.542-13.458-30-30-30C405.047,40,315.384,40,304.995,40z
	 M386,100v352H126V100H386z M216,60c5.522,0,10-4.478,10-10c0-16.542,13.458-30,30-30s30,13.458,30,30c0,5.522,4.478,10,10,10h30v20
	H186V60H216z M426,70v412c0,5.514-4.486,10-10,10H96c-5.514,0-10-4.486-10-10V70c0-5.514,4.486-10,10-10h70v20h-50
	c-5.522,0-10,4.478-10,10v372c0,5.522,4.478,10,10,10h280c5.522,0,10-4.478,10-10V90c0-5.522-4.478-10-10-10h-50V60h70
	C421.514,60,426,64.486,426,70z"/>
<path d="M176,406h160c5.522,0,10-4.478,10-10s-4.478-10-10-10H176c-5.522,0-10,4.478-10,10S170.478,406,176,406z"/>
<path d="M206,336c0,5.522,4.478,10,10,10h120c5.522,0,10-4.478,10-10s-4.478-10-10-10H216C210.478,326,206,330.478,206,336z"/>
<path d="M256,286c38.598,0,70-31.402,70-70s-31.402-70-70-70s-70,31.402-70,70S217.402,286,256,286z M256,166
	c27.57,0,50,22.43,50,50s-22.43,50-50,50s-50-22.43-50-50S228.43,166,256,166z"/>
<path d="M236,226h10v10c0,5.522,4.478,10,10,10s10-4.478,10-10v-10h10c5.522,0,10-4.478,10-10s-4.478-10-10-10h-10v-10
	c0-5.522-4.478-10-10-10s-10,4.478-10,10v10h-10c-5.522,0-10,4.478-10,10S230.478,226,236,226z"/>
<g>
</g>
<g>
</g>
<g>
</g>
<g>
</g>
<g>
</g>
<g>
</g>
<g>
</g>
<g>
</g>
<g>
</g>
<g>
</g>
<g>
</g>
<g>
</g>
<g>
</g>
<g>
</g>
<g>
</g>
</svg>
