<?xml version="1.0" encoding="iso-8859-1"?>
<!-- Generator: Adobe Illustrator 19.0.0, SVG Export Plug-In . SVG Version: 6.00 Build 0)  -->
<svg version="1.1" id="Capa_1" xmlns="http://www.w3.org/2000/svg" xmlns:xlink="http://www.w3.org/1999/xlink" x="0px" y="0px"
	 viewBox="0 0 511.998 511.998" style="enable-background:new 0 0 511.998 511.998;" xml:space="preserve">
<path style="fill:#4DBBEB;" d="M445.749,56.308v203.97c0,42.72-13.29,84.68-38.97,118.82c-64.52,85.78-151.03,122.9-151.03,122.9
	s-86.51-37.12-151.03-122.91c-25.68-34.13-38.97-76.09-38.97-118.81V56.308c0-15.5,17.18-25.62,30.18-17.18
	c17.22,11.18,37.76,17.68,59.82,17.68c33.86,0,64.14-15.3,84.32-39.36c8.33-9.93,23.03-9.93,31.36,0
	c20.18,24.06,50.46,39.36,84.32,39.36c22.06,0,42.6-6.5,59.82-17.68C428.569,30.688,445.749,40.808,445.749,56.308z"/>
<path style="fill:#E3F2FF;" d="M105.749,88.188c15.87,5.63,32.75,8.62,50,8.62c37.48,0,72.95-14.13,100-38.27
	c27.05,24.14,62.52,38.27,100,38.27c17.25,0,34.13-2.99,50-8.62v172.09c0,34.61-10.99,68.26-30.94,94.75
	c-41.66,55.41-93.4,88.24-118.98,102.22c-25.7-14.14-77.81-47.26-119.14-102.2c-19.95-26.51-30.94-60.16-30.94-94.77L105.749,88.188
	L105.749,88.188z"/>
<polygon style="fill:#ED5151;" points="345.749,215.998 345.749,275.998 285.749,275.998 285.749,335.998 225.749,335.998 
	225.749,275.998 165.749,275.998 165.749,215.998 225.749,215.998 225.749,155.998 285.749,155.998 285.749,215.998 "/>
<path d="M105.999,205.998c5.52,0,10-4.48,10-10s-4.48-10-10-10s-10,4.48-10,10S100.479,205.998,105.999,205.998z"/>
<path d="M285.999,145.998h-60c-5.522,0-10,4.478-10,10v50h-50c-5.522,0-10,4.478-10,10v60c0,5.522,4.478,10,10,10h50v50
	c0,5.522,4.478,10,10,10h60c5.522,0,10-4.478,10-10v-50h50c5.522,0,10-4.478,10-10v-60c0-5.522-4.478-10-10-10h-50v-50
	C295.999,150.476,291.521,145.998,285.999,145.998z M335.999,225.998v40h-50c-5.522,0-10,4.478-10,10v50h-40v-50
	c0-5.522-4.478-10-10-10h-50v-40h50c5.522,0,10-4.478,10-10v-50h40v50c0,5.522,4.478,10,10,10L335.999,225.998L335.999,225.998z"/>
<path d="M455.999,56.308c0-23.293-25.858-38.401-45.625-25.567c-16.19,10.512-34.993,16.067-54.375,16.067
	c-29.642,0-57.583-13.043-76.658-35.786c-0.001,0-0.001,0-0.001,0C273.465,4.018,264.957,0,255.999,0s-17.466,4.018-23.342,11.021
	c-19.075,22.743-47.017,35.786-76.658,35.786c-19.382,0-38.185-5.556-54.375-16.067c-19.773-12.833-45.625,2.276-45.625,25.567
	v203.971c0,45.371,14.554,89.7,40.978,124.82c65.37,86.919,151.447,124.53,155.079,126.089c1.259,0.54,2.602,0.811,3.943,0.811
	s2.685-0.271,3.943-0.811c3.632-1.559,89.709-39.169,155.078-126.078c26.426-35.131,40.979-79.464,40.979-124.831V56.308z
	 M435.999,260.278c0,41.059-13.126,81.121-36.962,112.809c-54.362,72.275-125.664,109.534-143.044,117.893
	c-17.387-8.339-88.551-45.46-143.033-117.904c-23.835-31.677-36.961-71.735-36.961-112.797V56.308
	c0-7.613,8.401-12.902,14.734-8.792c19.441,12.621,42.01,19.292,65.266,19.292c35.57,0,69.097-15.648,91.981-42.933
	c2.096-2.499,4.943-3.875,8.019-3.875s5.923,1.376,8.018,3.875c22.886,27.284,56.412,42.933,91.982,42.933
	c23.256,0,45.824-6.671,65.266-19.292c6.23-4.047,14.734,1.064,14.734,8.792L435.999,260.278L435.999,260.278z"/>
<path d="M411.769,80.021c-2.654-1.874-6.051-2.342-9.113-1.257c-15.045,5.338-30.743,8.044-46.656,8.044
	c-34.373,0-67.522-12.689-93.342-35.73c-3.793-3.385-9.523-3.385-13.316,0c-25.819,23.041-58.969,35.73-93.342,35.73
	c-15.913,0-31.611-2.706-46.656-8.044c-3.064-1.085-6.459-0.617-9.113,1.257c-2.652,1.874-4.23,4.92-4.23,8.168v67.81
	c0,5.522,4.478,10,10,10s10-4.478,10-10v-54.293c13.058,3.39,26.46,5.103,40,5.103c36.395,0,71.575-12.433,100-35.181
	c28.425,22.748,63.605,35.181,100,35.181c13.54,0,26.942-1.713,40-5.103v158.573c0,32.451-10.273,63.964-28.934,88.74
	c-37.813,50.296-83.997,81.439-110.972,96.772c-27.188-15.534-73.669-46.913-111.164-96.756
	C126.275,324.244,116,292.723,116,260.278v-24.28c0-5.522-4.478-10-10-10s-10,4.478-10,10v24.28
	c0,36.756,11.702,72.548,32.949,100.781c42.051,55.902,94.681,89.75,122.31,104.951c1.501,0.825,3.16,1.238,4.82,1.238
	c1.65,0,3.302-0.408,4.796-1.225c27.416-14.984,79.745-48.548,122.172-104.979c21.249-28.216,32.952-64.001,32.952-100.766V88.188
	C415.999,84.94,414.421,81.895,411.769,80.021z"/>
<g>
</g>
<g>
</g>
<g>
</g>
<g>
</g>
<g>
</g>
<g>
</g>
<g>
</g>
<g>
</g>
<g>
</g>
<g>
</g>
<g>
</g>
<g>
</g>
<g>
</g>
<g>
</g>
<g>
</g>
</svg>
