<?xml version="1.0" encoding="iso-8859-1"?>
<!-- Generator: Adobe Illustrator 19.0.0, SVG Export Plug-In . SVG Version: 6.00 Build 0)  -->
<svg version="1.1" id="Capa_1" xmlns="http://www.w3.org/2000/svg" xmlns:xlink="http://www.w3.org/1999/xlink" x="0px" y="0px"
	 viewBox="0 0 512 512" style="enable-background:new 0 0 512 512;" xml:space="preserve">
<path style="fill:#57555C;" d="M124.957,324.42l-0.08,0.5c-9.7,92.87,71.93,177.08,162.87,177.08c85.47,0,164-69.53,164-155V221.1
	v-0.01h-40v0.01V344c0,63.41-60.59,115-124,115c-68.98,0-132.71-63.55-122.52-134.45l-0.1-0.49"/>
<g>
	<path style="fill:#E3F2FF;" d="M431.747,96c38.66,0,70,31.34,70,70c0,38.829-31.524,70-70,70c-38.523,0-70-31.217-70-70
		C361.747,127.34,393.087,96,431.747,96z"/>
	<path style="fill:#E3F2FF;" d="M232.817,31.58l-10.95-2.73h-0.01l-13.95,37.74l15.2,3.8c10.17,2.54,16.65,12.49,14.86,22.81
		l-6.48,37.5l-15.08,93.18c-5.53,36-35.98,62.12-72.4,62.12s-66.87-26.12-72.46-62.48L50.047,93.2
		c-1.79-10.32,4.69-20.27,14.86-22.81l15.2-3.8l-13.95-37.74h-0.01l-10.94,2.73c-30.49,7.62-49.93,37.48-44.57,68.44l21.44,129.95
		C40.651,285.725,87.828,326,144.007,326c56.219,0,103.357-40.309,111.88-95.66l21.5-130.32
		C282.737,69.05,263.297,39.2,232.817,31.58z"/>
</g>
<g>
	<path style="fill:#57555C;" d="M221.857,28.85c7.859,19.506-6.515,41.15-27.85,41.15c-16.57,0-30-13.43-30-30s13.43-30,30-30
		C206.637,10,217.437,17.8,221.857,28.85z"/>
	<path style="fill:#57555C;" d="M94.007,10c16.57,0,30,13.43,30,30s-13.43,30-30,30c-21.403,0-35.686-21.701-27.85-41.15
		C70.577,17.8,81.377,10,94.007,10z"/>
</g>
<path d="M431.997,146c5.52,0,10-4.48,10-10s-4.48-10-10-10s-10,4.48-10,10S426.477,146,431.997,146z"/>
<path d="M471.997,166c0-5.523-4.477-10-10-10s-10,4.477-10,10c0,11.028-8.972,20-20,20s-20-8.972-20-20
	c0-0.771,0.041-1.507,0.121-2.188c0.647-5.485-3.274-10.456-8.759-11.104c-5.488-0.648-10.456,3.273-11.104,8.759
	c-0.172,1.455-0.259,2.98-0.259,4.532c0,22.056,17.944,40,40,40S471.997,188.056,471.997,166z"/>
<path d="M194.257,0c-22.056,0-40,17.944-40,40s17.944,40,40,40c5.094,0,10.153-0.994,14.844-2.866l11.833,2.959
	c5.056,1.263,8.32,6.27,7.43,11.405l-6.48,37.5c-0.006,0.035-0.012,0.07-0.018,0.105l-15.093,93.259
	C201.999,253.442,175.707,276,144.257,276c-31.448,0-57.765-22.71-62.576-54c-0.005-0.036-0.011-0.072-0.017-0.108L60.15,91.491
	c-0.89-5.129,2.374-10.136,7.433-11.4l11.831-2.958C84.109,79.007,89.166,80,94.257,80c22.056,0,40-17.944,40-40s-17.944-40-40-40
	c-14.63,0-27.772,7.807-34.799,20.275l-6.426,1.604c-35.379,8.842-58.22,43.916-52.012,79.77L22.452,231.55
	c7.659,49.659,44.141,89.153,92.081,100.871C110.035,426.997,192.974,512,287.997,512c89.34,0,174-72.405,174-165V240.148
	c29.501-11.99,50-40.657,50-74.148c0-44.112-35.888-80-80-80s-80,35.888-80,80c0,33.412,20.427,62.128,50,74.148V344
	c0,55.935-53.271,105-114,105c-60.523,0-118.17-54.145-113.307-116.758c47.244-11.802,83.64-50.579,91.322-100.323l21.479-130.197
	c6.237-36.102-16.401-70.943-52.005-79.845l-6.43-1.603C222.028,7.807,208.887,0,194.257,0z M174.257,40c0-11.028,8.972-20,20-20
	c11.386,0,20,9.253,20,20c0,11.08-8.969,20-20,20C183.229,60,174.257,51.028,174.257,40z M94.257,20c11.028,0,20,8.972,20,20
	s-8.972,20-20,20c-11.04,0-20-8.925-20-20C74.257,29.231,82.893,20,94.257,20z M371.997,166c0-33.084,26.916-60,60-60
	s60,26.916,60,60c0,32.702-26.858,60.538-61,59.98C397.771,225.438,371.997,198.011,371.997,166z M287.997,469
	c68.165,0,134-55.291,134-125v-98.634c3.303,0.413,6.64,0.634,10,0.634s6.698-0.221,10-0.633V347c0,77.243-71.962,145-154,145
	c-83.144,0-156.084-74.36-153.562-156.395c3.266,0.256,6.546,0.395,9.821,0.395c3.415,0,6.824-0.146,10.21-0.42
	C151.848,408.29,218.079,469,287.997,469z M267.771,98.392l-21.5,130.32c-0.006,0.036-0.011,0.071-0.017,0.106
	c-7.573,49.184-49.842,87.314-102.256,87.175c-52.37-0.139-94.194-38.169-101.786-87.543c-0.005-0.036-0.011-0.072-0.017-0.108
	L20.741,98.314c-4.232-24.442,10.37-48.316,33.596-55.99c0.396,6.882,2.54,13.404,6.104,19.044
	c-13.847,4.664-22.531,18.929-20.01,33.46l21.491,130.265C68.265,266.183,102.883,296,144.257,296c41.395,0,76-29.692,82.272-70.522
	l15.072-93.13l6.469-37.438c2.533-14.609-6.152-28.88-19.998-33.541c3.565-5.641,5.71-12.163,6.105-19.047
	C257.401,49.995,272.006,73.875,267.771,98.392z"/>
<g>
</g>
<g>
</g>
<g>
</g>
<g>
</g>
<g>
</g>
<g>
</g>
<g>
</g>
<g>
</g>
<g>
</g>
<g>
</g>
<g>
</g>
<g>
</g>
<g>
</g>
<g>
</g>
<g>
</g>
</svg>
